:SAMPLES-PER-SECOND 30
:FULLY-SPECIFIED
:DEGREES
233
root  34.9969969 36.49986147 -14.60946902 12.1825695 12.07312393 4.716524601
lowerback  -8.267251015 2.965280056 2.939690351
upperback  -4.693150043 3.341310024 -4.645349979
thorax  0.2099000067 1.385720015 -6.207890034
lowerneck  -15.59679985 -0.8267769814 2.199510098
upperneck  13.31369972 -2.78805995 5.677020073
head  6.69771862 -0.8262730241 1.177049994
lclavicle  0 -4.497500157e-015 -2.743230041e-014
lhumerus  -44.39889908 26.68709946 66.95850372
lradius  -0.3564891815 -6.507048965e-006 26.85789871
lwrist  4.824992743e-007 -3.790274832e-007 -32.29729843
lhand  -4.417268239e-031 -36.9280014 -10.7748003
lfingers  90 7.125020027 -90
lthumb  94.85049181 -25.60776373 101.1081755
rclavicle  0 -4.497500157e-015 -2.743230041e-014
rhumerus  46.64310455 0.3537971079 -46.8669014
rradius  -5.16745672e-007 2.214343908e-008 73.79039764
rwrist  1.129822067e-006 0.001802438172 -177.6130066
rhand  -1.77000414e-031 4.059869766 -7.365640163
rfingers  -90 -7.125020027 -90
rthumb  -85.06543446 -8.654237769 -60.15348924
rfemur  -14.25174332 10.51798916 14.30062008
rtibia  -2.75145936 2.103718519 23.52360153
rfoot  -2.518028021 -14.64488411 -44.68262863
rtoes  3.803324631 19.64959266 -101.1828783
lfemur  -12.18508053 -22.74956131 -18.86421776
ltibia  3.791313648 2.534794807 14.10778713
lfoot  0.7469289303 -29.61168861 29.22720528
ltoes  -8.658249288 -18.09829998 -116.1135101
234
root  35.00328064 36.50066946 -14.60486134 12.14109898 11.91093922 4.652980804
lowerback  -8.244169235 2.929009914 2.864689589
upperback  -4.686210155 3.298209906 -4.624010086
thorax  0.1936870068 1.365249991 -6.147190094
lowerneck  -15.5855999 -0.7853760123 2.147300005
upperneck  13.31070042 -2.724329948 5.707779884
head  6.693109989 -0.7956929207 1.202059984
lclavicle  0 -4.497500157e-015 -2.743230041e-014
lhumerus  -44.34930038 26.51049995 67.1434021
lradius  -0.3542124629 -6.507048965e-006 26.90880013
lwrist  4.824992743e-007 -3.790274832e-007 -31.9503994
lhand  -4.419094784e-031 -36.95949936 -10.73480034
lfingers  90 7.125020027 -90
lthumb  94.85676144 -25.56741503 101.1382029
rclavicle  0 -4.497500157e-015 -2.743230041e-014
rhumerus  45.44259644 0.5065600872 -47.00619888
rradius  -5.16745672e-007 2.214343908e-008 75.24520111
rwrist  1.129822067e-006 0.001802438172 -178.2649994
rhand  -1.769738713e-031 3.936939955 -7.353980064
rfingers  -90 -7.125020027 -90
rthumb  -85.08771204 -8.656589792 -60.27247766
rfemur  -14.17114353 10.51974964 14.29238892
rtibia  -2.671645403 2.072488546 23.38241386
rfoot  -2.458740473 -14.77873421 -44.59246063
rtoes  3.807813538 19.64875639 -101.1962278
lfemur  -12.14672565 -22.67128563 -18.83362961
ltibia  3.770613194 2.545737028 14.12937832
lfoot  0.765859127 -29.65545464 29.354496
ltoes  -8.653079154 -18.10070802 -116.0968682
235
root  35.00889455 36.50306041 -14.5999578 12.10839081 11.75703907 4.592497826
lowerback  -8.210529327 2.896169901 2.804709435
upperback  -4.67125988 3.259939909 -4.610630035
thorax  0.1819369942 1.347579956 -6.103240013
lowerneck  -15.57839966 -0.7609270215 2.106060028
upperneck  13.30290031 -2.680700064 5.712629795
head  6.68885994 -0.7762429118 1.214880109
lclavicle  0 -4.497500157e-015 -2.743230041e-014
lhumerus  -44.32369995 26.48410034 67.22989655
lradius  -0.3519026339 -6.507048965e-006 26.94750023
lwrist  4.824992743e-007 -3.790274832e-007 -31.86470032
lhand  -4.417807257e-031 -36.93730164 -10.78250027
lfingers  90 7.125020027 -90
lthumb  94.85652206 -25.61495088 101.1188686
rclavicle  0 -4.497500157e-015 -2.743230041e-014
rhumerus  44.16650009 0.6512016058 -47.3105011
rradius  -5.16745672e-007 2.214343908e-008 76.70339966
rwrist  1.129822067e-006 0.001802438172 -178.3679962
rhand  -1.769628806e-031 3.884890079 -7.297520161
rfingers  -90 -7.125020027 -90
rthumb  -85.07136118 -8.702283751 -60.31895978
rfemur  -14.12438488 10.57862377 14.29110146
rtibia  -2.605436802 2.098847389 23.2856636
rfoot  -2.384453535 -14.79149914 -44.47359848
rtoes  3.850446632 19.64076271 -101.3230413
lfemur  -12.12547874 -22.62214088 -18.80205345
ltibia  3.743927956 2.527702808 14.15916634
lfoot  0.7547442913 -29.62978935 29.43995094
ltoes  -8.652077574 -18.10117431 -116.0936445
236
root  35.01303665 36.50591993 -14.59639091 12.07944489 11.61165619 4.550159931
lowerback  -8.213319778 2.856460094 2.762439728
upperback  -4.648280144 3.211999893 -4.581289768
thorax  0.1975349933 1.326159954 -6.051879883
lowerneck  -15.53899956 -0.7171289921 2.056360006
upperneck  13.25419998 -2.60439992 5.719970226
head  6.66531992 -0.7426210046 1.233199954
lclavicle  0 -4.497500157e-015 -2.743230041e-014
lhumerus  -44.30049896 26.45280075 67.35269928
lradius  -0.3495644629 -6.507048965e-006 26.99440002
lwrist  4.824992743e-007 -3.790274832e-007 -31.68930054
lhand  -4.417320405e-031 -36.92890167 -10.82409954
lfingers  90 7.125020027 -90
lthumb  94.86143285 -25.65617045 101.1136264
rclavicle  0 -4.497500157e-015 -2.743230041e-014
rhumerus  42.76029968 0.8742437363 -47.30210114
rradius  -5.16745672e-007 2.214343908e-008 78.32510376
rwrist  1.129822067e-006 0.001802438172 -178.7899933
rhand  -1.76984499e-031 3.986619949 -7.211589813
rfingers  -90 -7.125020027 -90
rthumb  -85.00479824 -8.783324542 -60.21322894
rfemur  -14.09609699 10.61655331 14.28699493
rtibia  -2.556084156 2.110928297 23.22651863
rfoot  -2.336996794 -14.82671356 -44.36998749
rtoes  3.838980138 19.6429218 -101.288929
lfemur  -12.06242752 -22.5670433 -18.80254173
ltibia  3.748411417 2.510102272 14.11927986
lfoot  0.7349413633 -29.57177162 29.50699997
ltoes  -8.646680235 -18.10368589 -116.0762739
